<?xml version="1.0" encoding="UTF-8"?>
<svg id="Layer_1" xmlns="http://www.w3.org/2000/svg" version="1.1" viewBox="0 0 138 55">
  <!-- Generator: Adobe Illustrator 29.2.1, SVG Export Plug-In . SVG Version: 2.1.0 Build 116)  -->
  <defs>
    <style>
      .st0 {
        stroke: #dcd9d0;
        stroke-linecap: round;
        stroke-width: .9px;
      }

      .st0, .st1 {
        fill: #dcd9d0;
      }

      .st0, .st2 {
        stroke-miterlimit: 10;
      }

      .st2 {
        fill: #753c29;
        stroke: #8e4f3d;
        stroke-width: 3px;
      }
    </style>
  </defs>
  <rect class="st2" x="1.5" y="1.5" width="135" height="52" rx="9.5" ry="9.5"/>
  <g>
    <path class="st1" d="M18.1,35.6v-10h-3.1v-1.9c.9,0,1.6,0,2-.2s.8-.4,1.1-.7c.3-.3.5-.8.6-1.5h1.9v14.3h0c0,0-2.5,0-2.5,0h0Z"/>
    <path class="st1" d="M25.2,34.9c-.9-.6-1.5-1.5-2-2.6-.4-1.1-.7-2.4-.7-3.9s.2-2.8.7-3.9c.4-1.1,1.1-2,2-2.6.9-.6,1.9-.9,3.1-.9s2.2.3,3.1.9c.9.6,1.5,1.5,2,2.6.5,1.1.7,2.4.7,3.9s-.2,2.8-.7,3.9c-.5,1.1-1.1,2-2,2.6-.9.6-1.9.9-3.1.9s-2.2-.3-3.1-.9ZM30.1,33.1c.5-.4.8-1,1.1-1.8.2-.8.4-1.7.4-2.8,0-1.6-.3-2.9-.8-3.8-.5-.9-1.3-1.4-2.4-1.4s-1.3.2-1.7.6c-.5.4-.8,1-1.1,1.8-.2.8-.4,1.7-.4,2.8,0,1.7.3,2.9.8,3.9s1.3,1.4,2.4,1.4,1.3-.2,1.8-.6Z"/>
    <path class="st1" d="M36.7,27.8c-.5-.3-.9-.7-1.2-1.3-.3-.5-.4-1.2-.4-1.9s.1-1.3.4-1.9c.3-.5.7-1,1.2-1.3.5-.3,1.1-.5,1.8-.5s1.2.2,1.7.5c.5.3.9.7,1.2,1.3s.4,1.2.4,1.9-.1,1.3-.4,1.9-.7,1-1.2,1.3c-.5.3-1.1.5-1.7.5s-1.3-.2-1.8-.5ZM39.3,26.4c.2-.2.4-.4.5-.7s.2-.7.2-1.1c0-.6-.1-1.1-.4-1.5-.3-.4-.6-.5-1.1-.5s-.6,0-.8.2-.4.4-.5.7c-.1.3-.2.7-.2,1.1,0,.6.1,1.1.4,1.5.3.4.7.5,1.1.5s.6,0,.8-.2ZM46.9,21.2h1.9l-9.6,14.4h-1.9l9.6-14.4ZM45.9,35.4c-.5-.3-.9-.7-1.2-1.3-.3-.5-.4-1.2-.4-1.9s.1-1.3.4-1.9c.3-.5.7-1,1.2-1.3.5-.3,1.1-.5,1.8-.5s1.3.2,1.8.5c.5.3.9.7,1.2,1.3.3.5.4,1.2.4,1.9s-.1,1.3-.4,1.9c-.3.5-.7,1-1.2,1.3-.5.3-1.1.5-1.8.5s-1.2-.2-1.8-.5ZM48.4,34c.2-.2.4-.4.5-.7.1-.3.2-.7.2-1.1,0-.6-.1-1.1-.4-1.5-.3-.4-.7-.5-1.1-.5s-.6,0-.8.2-.4.4-.5.7c-.1.3-.2.7-.2,1.1,0,.6.1,1.1.4,1.5.3.4.7.5,1.1.5s.6,0,.8-.2Z"/>
    <path class="st1" d="M58.6,34.9c-.9-.6-1.5-1.5-2-2.6-.4-1.1-.7-2.4-.7-3.9s.2-2.8.7-3.9c.4-1.1,1.1-2,2-2.6.9-.6,1.9-.9,3.1-.9s2.2.3,3.1.9c.9.6,1.5,1.5,2,2.6.5,1.1.7,2.4.7,3.9s-.2,2.8-.7,3.9c-.5,1.1-1.1,2-2,2.6-.9.6-1.9.9-3.1.9s-2.2-.3-3.1-.9ZM63.4,33.1c.5-.4.8-1,1.1-1.8.2-.8.4-1.7.4-2.8,0-1.6-.3-2.9-.8-3.8-.5-.9-1.3-1.4-2.4-1.4s-1.3.2-1.7.6c-.5.4-.8,1-1.1,1.8-.2.8-.4,1.7-.4,2.8,0,1.7.3,2.9.8,3.9s1.3,1.4,2.4,1.4,1.3-.2,1.8-.6Z"/>
    <path class="st1" d="M69.3,35.6v-14.3h0c0,0,9.7,0,9.7,0v2.2h-7.2v12.2h0c0,0-2.5,0-2.5,0h0ZM70.9,27h6.6v2.2h-6.6v-2.2Z"/>
    <path class="st1" d="M80.4,35.6v-14.3h0c0,0,9.7,0,9.7,0v2.2h-7.2v12.2h0c0,0-2.5,0-2.5,0h0ZM82,27h6.6v2.2h-6.6v-2.2Z"/>
  </g>
  <g>
    <line class="st0" x1="108.5" y1="35.5" x2="126" y2="18"/>
    <line class="st0" x1="126" y1="35.5" x2="108.5" y2="18"/>
  </g>
</svg>