<svg width="40" height="201" viewBox="0 0 40 201" fill="none" xmlns="http://www.w3.org/2000/svg">
<path d="M16.959 165.525C19.2765 165.349 21.2319 166.108 23.2197 167.126C25.1784 168.129 27.228 169.426 29.5684 170.143C29.8695 170.235 30.166 170.316 30.4551 170.392C30.3409 170.363 30.2273 170.333 30.1143 170.305C29.334 170.106 28.581 169.905 27.877 169.636C26.2334 169.008 24.7454 168.04 23.0938 167.166C21.4763 166.31 19.7497 165.577 17.7891 165.578C16.7193 165.578 15.3085 165.874 13.9502 166.233C12.581 166.596 11.2124 167.037 10.2207 167.348C8.87482 167.769 7.75231 168.201 6.76465 168.848C5.76876 169.5 4.93372 170.356 4.12988 171.597C2.57583 173.996 2.47974 176.083 1.89844 178.554C1.19783 181.534 0.187623 184.291 0.647461 187.616L0.696289 187.939C1.01223 189.846 1.7888 190.945 2.81445 191.814C3.31149 192.236 3.86645 192.602 4.42285 192.973C4.98601 193.348 5.56352 193.735 6.14941 194.216C6.62647 194.607 7.07043 195.043 7.52539 195.498C7.97543 195.948 8.44032 196.419 8.93457 196.856L9.76562 197.592V197.543C12.8019 199.911 16.0882 200.788 20.0986 200.299C20.5302 200.246 20.9812 200.187 21.4453 200.124C18.2104 200.654 15.5666 200.839 12.126 199.182C10.8983 198.59 9.96966 197.847 9.0791 197.023C8.20581 196.216 7.31184 195.272 6.25586 194.398C5.59822 193.854 4.95153 193.414 4.35645 193.012C3.75497 192.605 3.21556 192.242 2.7334 191.834C1.79697 191.042 1.07569 190.081 0.731445 188.349C0.277741 186.066 0.547879 183.826 1.04492 181.552C1.2939 180.412 1.59578 179.28 1.88965 178.125C2.17913 176.988 2.45912 175.835 2.65918 174.671C3.46431 171.976 5.22201 169.358 7.75684 168.173C8.69504 167.734 10.4886 167.109 12.3223 166.571C14.163 166.031 15.9741 165.6 16.959 165.525ZM31.7285 170.712C32.4032 170.879 33.0151 171.043 33.582 171.265C34.6889 171.698 35.638 172.361 36.4434 173.758C38.9085 178.031 40.611 183.053 38.6367 187.67C38.3114 188.431 37.89 189.167 37.4482 189.926C37.0116 190.676 36.5526 191.452 36.1846 192.256C35.9013 192.875 35.6771 193.488 35.4648 194.054C35.2498 194.627 35.0468 195.151 34.7979 195.634C34.312 196.575 33.6536 197.354 32.3975 197.896C30.7409 198.61 28.9942 198.93 27.1885 199.201C27.4986 199.143 27.8041 199.085 28.1025 199.025L29.1602 198.805C29.7664 198.672 30.5999 198.458 31.4053 198.181C32.196 197.908 33.0164 197.556 33.5537 197.127C34.3358 196.503 34.8163 195.594 35.1826 194.71C35.367 194.265 35.5298 193.806 35.6855 193.378C35.8435 192.944 35.9942 192.541 36.1602 192.181H36.1611C36.6196 191.184 37.1777 190.29 37.7295 189.311C38.273 188.346 38.7934 187.323 39.1123 186.143C40.2507 181.922 38.4507 177.28 36.4033 173.807C35.4642 172.213 33.9929 171.451 32.4551 170.946C31.9597 170.784 31.4473 170.647 30.9385 170.516C31.21 170.584 31.4738 170.649 31.7285 170.712Z" fill="#7E3823" stroke="#7E3823"/>
<line x1="20.75" y1="-3.27835e-08" x2="20.75" y2="137" stroke="#7E3823" stroke-width="1.5"/>
</svg>
